<svg xmlns="http://www.w3.org/2000/svg" xmlns:xlink="http://www.w3.org/1999/xlink" id="Warstwa_1" viewBox="0 0 1481.48 1673"><defs><style>      .st0 {        fill: none;      }      .st1 {        clip-path: url(#clippath);      }    </style><clipPath id="clippath"><rect class="st0" x="-208.17" y="0" width="2378.2" height="1672.5"></rect></clipPath></defs><g class="st1"><path d="M180.57,900.28c-9.1,16-15.84,30.58-20.7,42.66-4.39-12.86-10.98-28.39-20.54-45.64-12.23-21.8-31.99-37.01-46.89-46.11,16.62-8.63,39.36-24.46,53.48-51.28,7.53-14.27,13.17-27.29,17.41-38.42,3.76,11.76,8.94,25.72,16.15,40.62,12.55,26.03,33.87,41.24,49.56,49.56-15.06,9.88-35.76,26.5-48.46,48.62ZM254.13,840.37c-.47-.16-39.36-11.29-56.61-47.05-19.92-41.24-23.05-73.55-23.05-73.86-.47-5.18-4.7-9.1-9.88-9.25-5.33-.16-9.57,3.61-10.19,8.78,0,.31-4.39,30.11-26.35,71.36-19.92,37.32-61.63,49.87-62.1,50.03-4.08,1.25-7.06,4.86-7.21,9.1-.31,4.23,2.2,8.31,6.27,9.88.47.16,39.21,16.47,56.77,47.67,23.52,41.87,26.97,73.39,26.97,73.71.47,4.86,4.55,8.78,9.57,9.1h.47c4.7,0,8.94-3.45,9.88-8.15,0-.31,6.59-31.52,29.48-71.36,18.19-31.52,57.4-51.12,57.87-51.28,3.76-1.88,5.96-5.8,5.65-10.04-.47-4.08-3.45-7.53-7.53-8.63ZM1359.9,311.71c-3.29,5.8-6.12,11.29-8.47,16.31-2.35-5.49-5.18-11.61-8.78-18.03-6.12-10.98-15.37-19.29-23.52-25.09,9.41-5.8,20.23-14.9,27.44-28.54,2.35-4.55,4.55-8.94,6.27-13.02,1.73,4.39,3.76,9.25,6.12,14.27,6.43,13.33,16.62,22.27,25.41,27.76-8.15,6.12-17.88,15.06-24.46,26.35ZM1408.2,274.23c-.16,0-21.64-6.43-30.89-25.72-11.45-23.68-13.33-42.03-13.33-42.34-.47-5.02-4.7-9.1-9.88-9.1-5.02-.16-9.57,3.61-10.19,8.63,0,.16-2.51,17.25-15.21,40.93-10.82,20.54-34.03,27.44-34.19,27.6-4.08,1.25-7.06,4.86-7.21,9.25-.16,4.23,2.2,8.31,6.27,9.88.16.16,21.96,9.25,31.52,26.35,13.33,23.99,15.37,41.87,15.37,42.03.47,5.02,4.55,8.78,9.57,9.1h.47c4.7,0,8.94-3.29,9.88-8,0-.16,3.76-18.03,16.94-41.09,10.04-17.41,32.31-28.54,32.46-28.7,3.76-1.88,5.96-5.8,5.65-10.04-.16-4.08-3.14-7.68-7.21-8.78ZM1208.72,1178.01c-1.41,2.51-2.82,5.02-3.92,7.37-1.25-2.67-2.82-5.65-4.39-8.63-4.08-7.21-9.72-13.02-15.37-17.25,6.43-4.55,13.49-11.13,18.35-20.23.78-1.57,1.57-2.98,2.35-4.39.78,1.73,1.57,3.45,2.35,5.33,4.39,8.94,10.82,15.37,16.94,19.76-5.8,4.55-11.92,10.66-16.31,18.03ZM1247.61,1149c-.16,0-15.06-4.55-21.48-17.72-8.31-17.25-9.72-30.42-9.72-30.74-.47-5.02-4.7-8.94-9.88-9.1-5.33.16-9.57,3.61-10.19,8.63,0,.16-1.88,12.55-10.98,29.64-7.53,14.27-23.84,19.13-23.84,19.29-4.08,1.25-7.06,4.86-7.37,9.1s2.2,8.31,6.27,9.88c.16.16,15.53,6.59,22.27,18.51,9.72,17.25,11.13,30.11,11.13,30.27.47,5.02,4.55,8.78,9.57,9.1h.47c4.7,0,8.94-3.29,9.88-8.15,0-.16,2.82-13.02,12.39-29.8,7.06-12.39,22.9-20.23,23.05-20.39,3.76-1.88,5.96-5.8,5.65-10.04-.31-3.76-3.14-7.37-7.21-8.47ZM576.24,84.47c8.94,0,16.15,7.21,16.15,16.15s-7.21,16.15-16.15,16.15-16.15-7.21-16.15-16.15c-.16-8.94,7.21-16.15,16.15-16.15ZM576.24,137.17c20.07,0,36.38-16.31,36.38-36.38s-16.31-36.38-36.38-36.38-36.38,16.31-36.38,36.38c-.16,19.92,16.31,36.38,36.38,36.38ZM955.13,1464.22c-8.94,0-16.15-7.21-16.15-16.15s7.21-16.31,16.15-16.31,16.15,7.21,16.15,16.31-7.21,16.15-16.15,16.15ZM955.13,1411.53c-20.07,0-36.38,16.31-36.38,36.54s16.31,36.38,36.38,36.38,36.38-16.31,36.38-36.38c0-20.23-16.31-36.54-36.38-36.54ZM298.35,1131.75c-8.94,0-16.15-7.21-16.15-16.31s7.21-16.15,16.15-16.15,16.15,7.21,16.15,16.15-7.21,16.31-16.15,16.31ZM298.35,1079.06c-20.07,0-36.38,16.31-36.38,36.38s16.31,36.54,36.38,36.54,36.38-16.31,36.38-36.54-16.31-36.38-36.38-36.38ZM1164.34,652.96c-8.94,0-16.15-7.21-16.15-16.15s7.21-16.15,16.15-16.15,16.15,7.21,16.15,16.15c.16,8.94-7.21,16.15-16.15,16.15ZM1164.34,600.27c-20.07,0-36.38,16.31-36.38,36.38s16.31,36.38,36.38,36.38,36.38-16.31,36.38-36.38c.16-20.07-16.31-36.38-36.38-36.38ZM932.39,1146.81c13.17,16.62,20.86,27.44,18.66,37.32-7.21,31.05-40.3,48.3-78.57,68.38-34.5,18.03-70.1,36.7-93.47,69-24.94,34.34-23.37,86.41-15.06,130.95-16.47-42.19-29.64-96.29-11.13-135.97,21.96-46.89,59.59-65.08,89.86-79.82,26.19-12.7,53.32-25.88,54.73-55.99,1.41-31.99-27.76-50.34-53.48-66.65-38.74-24.31-50.03-36.23-41.4-58.65,10.19-26.5,17.25-29.33,38.11-37.79,20.7-8.47,49.09-19.92,90.8-56.61,13.33-11.76,33.25-17.72,52.38-23.52,31.84-9.72,79.98-24.31,64.93-80.29-7.37-27.6-23.68-48.46-48.3-62.1-23.68-13.02-53.48-18.03-85.78-18.03-75.59,0-164.82,27.6-220.5,44.85l-17.88,5.49c-119.34,36.07-202.15,22.27-246.37-40.93-13.8-19.6-13.17-30.58-12.39-45.79,1.1-19.92,2.35-44.7-29.17-79.82-10.19-11.45-24.46-16.47-37.01-20.86-27.44-9.57-47.36-16.62-20.7-94.25,7.06-20.54,4.55-42.66,2.2-64.14-5.65-50.5-10.98-98.17,94.57-140.83,43.44-17.56,108.84,4.55,166.39,23.99,40.3,13.64,74.96,25.25,101.62,23.52,59.59-3.92,79.98-24.31,120.44-64.77,17.09-17.09,38.42-38.42,69.16-65.24,19.45-16.94,89.86-26.97,155.73-4.08,42.19,14.74,95.35,47.52,108.68,120.44,8.78,47.36,4.86,80.76-11.29,99.11-21.96,24.94-66.49,22.58-102.41,20.7-17.09-.94-31.68-1.73-42.97.63-36.38,7.53-52.38,26.5-66.49,43.13-18.35,21.64-37.32,44.22-115.89,51.75-20.07,1.73-54.26-9.88-84.69-20.23-26.66-9.1-49.71-16.94-67.75-18.03-37.48-2.35-185.37,8.15-210.62,64.61-5.65,12.86-11.29,29.95-3.92,47.67,8,19.13,28.54,33.25,70.88,49.09,129.22,47.99,185.21,38.11,246.84,27.13,13.64-2.35,26.19-5.02,38.42-7.68,60.22-12.86,112.13-24.15,249.35,17.09,115.58,34.66,140.67,57.71,134.09,122.95-3.29,32.78-74.49,65.4-131.58,91.59-59.75,27.29-116.05,53.16-138.01,89.39-23.21,39.99,2.19,72.14,18.98,93.31ZM1068.83,1001.27c76.84-35.13,149.45-68.38,155.1-124.36,10.66-105.39-60.69-135.18-162.78-165.76-147.1-44.07-203.72-31.99-269.43-17.88-11.76,2.51-23.84,5.18-39.36,7.84-56.14,9.88-104.6,18.51-223.32-25.72-37.64-13.96-46.11-22.74-47.83-26.82-1.1-2.67.16-7.84,3.61-15.53,10.98-24.62,117.78-43.91,171.1-40.62,12.55.78,35.13,8.47,57.08,16,35.91,12.23,73.08,25.09,101.62,22.11,94.88-9.25,121.38-40.62,142.87-65.87,12.7-15.06,21.17-24.94,43.91-29.64h0c6.12-1.25,19.6-.63,32.62.16,42.19,2.35,100.05,5.33,135.03-34.5,25.09-28.54,31.84-72.14,20.7-133.14-13.17-71.83-61.16-125.46-135.18-151.34-71.67-25.09-159.49-19.76-195.72,11.76-31.68,27.6-53.48,49.56-71.2,66.96-38.58,38.58-50.18,50.18-94.57,53.16-18.66,1.57-51.28-9.72-85.94-21.49-64.3-21.64-137.22-46.26-194.46-23.21-134.09,54.1-125.77,128.44-119.66,182.86,2.04,18.66,3.92,34.66-.31,46.58-36.54,106.64,4.23,131.11,45.48,145.53,8.31,2.98,17.09,5.96,20.23,9.57,20.39,22.74,19.76,34.03,18.98,50.97-.94,17.88-2.04,39.99,19.6,71.04,37.95,54.42,119.5,108.37,291.22,56.46l18.19-5.65c68.38-21.17,210.77-65.24,274.6-29.95,14.9,8.15,24.31,20.39,28.86,37.17,3.92,14.58,3.29,18.51-37.64,31.05-22.27,6.74-47.36,14.43-67.28,31.99-36.7,32.15-60.38,41.87-79.35,49.56-27.44,11.13-45.01,19.92-60.69,60.69-22.11,57.24,25.88,87.51,57.55,107.58,15.68,9.88,34.97,22.11,34.66,30.58-.31,5.96-16.47,13.8-31.99,21.33-34.19,16.62-80.76,39.21-108.84,99.11-44.22,94.25,41.56,233.98,45.32,239.94,3.76,5.96,10.19,9.57,17.09,9.57h28.07c6.74,0,13.02-3.29,16.78-8.94,3.76-5.65,4.55-12.7,2.04-18.82-13.02-32.62-43.6-134.71-13.8-175.64,17.88-24.62,49.24-41.09,79.67-56.93,43.28-22.58,87.98-46.11,99.27-95.19,6.9-29.64-11.61-52.85-26.35-71.67-19.29-24.31-23.68-33.4-15.53-46.89,15.21-26.03,68.38-50.34,119.97-74.02Z"></path></g></svg>